<svg width="63" height="64" viewBox="0 0 63 64" fill="none" xmlns="http://www.w3.org/2000/svg">
<path d="M61.934 39.3555L59.3925 37.4714C59.6965 35.6567 59.821 33.8202 59.7623 31.9984C59.821 30.1765 59.6965 28.3399 59.3925 26.5254L61.934 24.6412C62.6261 24.1285 62.8788 23.2112 62.5492 22.4165L59.6818 15.4877C59.3522 14.6931 58.5026 14.228 57.675 14.3506L54.5402 14.8157C52.7311 12.2724 50.5376 10.0787 48.0033 8.27337L48.5786 5.02024C48.7067 4.17062 48.238 3.34299 47.4433 3.01337L40.5146 0.144118C39.7198 -0.187257 38.8043 0.0672431 38.2916 0.759368L36.2918 3.42474C33.223 2.90474 30.1175 2.90649 27.0413 3.42287L25.0416 0.759368C24.5288 0.0672431 23.6171 -0.187257 22.8187 0.144118L15.89 3.01337C15.0953 3.34299 14.6266 4.17062 14.7547 5.02024L15.33 8.27337C12.7885 10.0861 10.5948 12.2797 8.78947 14.8176L5.65835 14.3507C4.8051 14.2317 3.97747 14.6914 3.65147 15.4879L0.784096 22.4165C0.454471 23.2111 0.707221 24.1285 1.39935 24.6412L3.94085 26.5236C3.63685 28.3474 3.51235 30.1857 3.57097 31.9362C3.51235 33.7892 3.63685 35.646 3.94085 37.4734L1.39935 39.3557C0.707221 39.8685 0.454471 40.7857 0.784096 41.5805L3.65147 48.5092C3.97735 49.3039 4.80135 49.7544 5.65835 49.6464L8.78947 49.1795C10.5948 51.7174 12.7885 53.911 15.33 55.7237L14.7436 58.9799C14.6155 59.8295 15.0842 60.6571 15.8788 60.9867L22.8076 63.856C23.606 64.1874 24.5178 63.9347 25.0305 63.2407L27.0415 60.5742C30.125 61.0906 33.2231 61.0925 36.292 60.5724L38.303 63.2407C38.8121 63.9272 39.726 64.1871 40.5258 63.856L47.4546 60.9867C48.2492 60.6571 48.718 59.8295 48.5898 58.9799L48.0035 55.7237C50.5376 53.9184 52.7312 51.7247 54.5403 49.1814L57.6751 49.6465C58.5101 49.76 59.3523 49.3022 59.682 48.5094L62.5493 41.5806C62.8787 40.7856 62.6261 39.8682 61.934 39.3555Z" fill="url(#paint0_linear_0_68)"/>
<path d="M61.934 39.3555L59.3925 37.4714C59.6965 35.6567 59.821 33.8202 59.7623 31.9984C59.821 30.1765 59.6965 28.3399 59.3925 26.5254L61.934 24.6412C62.6261 24.1285 62.8788 23.2112 62.5492 22.4165L59.6818 15.4877C59.3522 14.6931 58.5026 14.228 57.675 14.3506L54.5402 14.8157C52.7311 12.2724 50.5376 10.0787 48.0033 8.27337L48.5786 5.02024C48.7067 4.17062 48.238 3.34299 47.4433 3.01337L40.5146 0.144118C39.7198 -0.187257 38.8043 0.0672431 38.2916 0.759368L36.2918 3.42474C33.223 2.90474 30.1175 2.90649 27.0413 3.42287L25.0416 0.759368C24.5288 0.0672431 23.6171 -0.187257 22.8187 0.144118L15.89 3.01337C15.0953 3.34299 14.6266 4.17062 14.7547 5.02024L15.33 8.27337C12.7885 10.0861 10.5948 12.2797 8.78947 14.8176L5.65835 14.3507C4.8051 14.2317 3.97747 14.6914 3.65147 15.4879L0.784096 22.4165C0.454471 23.2111 0.707221 24.1285 1.39935 24.6412L3.94085 26.5236C3.63685 28.3474 3.51235 30.1857 3.57097 31.9362C3.51235 33.7892 3.63685 35.646 3.94085 37.4734L1.39935 39.3557C0.707221 39.8685 0.454471 40.7857 0.784096 41.5805L3.65147 48.5092C3.97735 49.3039 4.80135 49.7544 5.65835 49.6464L8.78947 49.1795C10.5948 51.7174 12.7885 53.911 15.33 55.7237L14.7436 58.9799C14.6155 59.8295 15.0842 60.6571 15.8788 60.9867L22.8076 63.856C23.606 64.1874 24.5178 63.9347 25.0305 63.2407L27.0415 60.5742C30.125 61.0906 33.2231 61.0925 36.292 60.5724L38.303 63.2407C38.8121 63.9272 39.726 64.1871 40.5258 63.856L47.4546 60.9867C48.2492 60.6571 48.718 59.8295 48.5898 58.9799L48.0035 55.7237C50.5376 53.9184 52.7312 51.7247 54.5403 49.1814L57.6751 49.6465C58.5101 49.76 59.3523 49.3022 59.682 48.5094L62.5493 41.5806C62.8787 40.7856 62.6261 39.8682 61.934 39.3555Z" fill="url(#paint1_linear_0_68)"/>
<path d="M31.6666 11.3734C20.304 11.3734 11.0416 20.6357 11.0416 31.9984C11.0416 43.3607 20.304 52.6234 31.6666 52.6234C43.0293 52.6234 52.2916 43.3607 52.2916 31.9984C52.2916 20.6357 43.0293 11.3734 31.6666 11.3734ZM25.479 34.4357C26.229 35.1482 26.229 36.3482 25.479 37.0607C24.8045 37.8107 23.529 37.811 22.8541 37.0607L19.1041 33.3107C18.3541 32.5982 18.3541 31.3982 19.1041 30.6856L22.8541 26.9356C23.5666 26.1857 24.7664 26.1857 25.479 26.9356C26.229 27.6481 26.229 28.8481 25.479 29.5606L23.0791 31.9982L25.479 34.4357ZM34.4416 28.6984L32.5666 36.1984C32.2471 37.4232 30.8634 37.8409 30.2791 37.5484C29.2665 37.3234 28.6666 36.3107 28.8916 35.2985L30.7666 27.7985C31.0291 26.7859 32.0415 26.186 33.0541 26.4482C34.0668 26.6732 34.6666 27.6857 34.4416 28.6984ZM44.229 33.3107L40.479 37.0607C39.8045 37.8107 38.529 37.811 37.8541 37.0607C37.1041 36.3482 37.1041 35.1482 37.8541 34.4357L40.254 31.9984L37.8541 29.5607C37.1041 28.8482 37.1041 27.6482 37.8541 26.9357C38.5666 26.1859 39.7664 26.1859 40.479 26.9357L44.229 30.6857C44.9791 31.3982 44.9791 32.5982 44.229 33.3107Z" fill="url(#paint2_linear_0_68)"/>
<defs>
<linearGradient id="paint0_linear_0_68" x1="31.6666" y1="64" x2="31.6666" y2="-7.62939e-06" gradientUnits="userSpaceOnUse">
<stop stop-color="#A93AFF"/>
<stop offset="1" stop-color="#FF81FF"/>
</linearGradient>
<linearGradient id="paint1_linear_0_68" x1="31.6667" y1="64.0004" x2="31.6667" y2="0" gradientUnits="userSpaceOnUse">
<stop stop-color="#31C3EF"/>
<stop offset="1" stop-color="#92E6FF"/>
</linearGradient>
<linearGradient id="paint2_linear_0_68" x1="31.6666" y1="52.6234" x2="31.6666" y2="11.3734" gradientUnits="userSpaceOnUse">
<stop stop-color="#BDF1FF"/>
<stop offset="1" stop-color="#FFF1FF"/>
</linearGradient>
</defs>
</svg>
