<svg width="64" height="64" viewBox="0 0 64 64" fill="none" xmlns="http://www.w3.org/2000/svg">
<path d="M64 17L24.2712 9.5L22.325 6.575C21.95 6.05 21.3875 5.75 20.75 5.75H1.875C0.825 5.75 0 6.575 0 7.625V28.25L1.875 30.125L0 32V35.75L5.75 37.625L0 39.5V43.25L4.9625 45.125L0 47V56.375C0 57.425 0.825 58.25 1.875 58.25H62.125C63.175 58.25 64 57.425 64 56.375V47C64 47 61.6375 45.125 62.125 45.125L64 43.25V39.5L60.25 37.625L64 35.75V32L59.1625 30.125L64 28.25V17Z" fill="url(#paint0_linear_0_84)"/>
<path d="M64 17L24.2712 9.5L22.325 6.575C21.95 6.05 21.3875 5.75 20.75 5.75H1.875C0.825 5.75 0 6.575 0 7.625V28.25L1.875 30.125L0 32V35.75L5.75 37.625L0 39.5V43.25L4.9625 45.125L0 47V56.375C0 57.425 0.825 58.25 1.875 58.25H62.125C63.175 58.25 64 57.425 64 56.375V47C64 47 61.6375 45.125 62.125 45.125L64 43.25V39.5L60.25 37.625L64 35.75V32L59.1625 30.125L64 28.25V17Z" fill="url(#paint1_linear_0_84)"/>
<path d="M10.8124 31.4374L14.5624 27.6874C15.3124 26.9749 15.3124 25.7749 14.5624 25.0624C13.8499 24.3125 12.6501 24.3125 11.9375 25.0624L8.71237 28.25H0V32H9.5C9.9875 32 10.475 31.8125 10.8124 31.4374ZM10.8124 43.8124C10.475 43.4375 9.9875 43.25 9.5 43.25H0V47H8.71237L11.9375 50.1874C12.6123 50.9376 13.8879 50.9374 14.5624 50.1874C15.3124 49.4749 15.3124 48.2749 14.5624 47.5624L10.8124 43.8124ZM17 35.75H0V39.5H17C18.0501 39.5 18.875 38.6749 18.875 37.625C18.875 36.5749 18.0501 35.75 17 35.75ZM52.0624 25.0624C51.3496 24.3125 50.1502 24.3125 49.4375 25.0624C48.6872 25.7749 48.6872 26.9749 49.4375 27.6874L53.1875 31.4374C53.525 31.8125 54.0125 32 54.5 32H64V28.25H55.2874L52.0624 25.0624ZM53.1876 43.8124L49.4376 47.5624C48.6874 48.2749 48.6874 49.4749 49.4376 50.1874C50.1124 50.9376 51.388 50.9374 52.0625 50.1874L55.2875 47H64V43.25H54.5C54.0125 43.25 53.525 43.4375 53.1876 43.8124ZM45.125 37.625C45.125 38.6749 45.9499 39.5 47 39.5H64V35.75H47C45.9499 35.75 45.125 36.5749 45.125 37.625ZM37.625 28.5954V26.375C37.625 25.3386 36.7864 24.5 35.75 24.5C34.7136 24.5 33.875 25.3386 33.875 26.375V28.25H30.125V26.375C30.125 25.3386 29.2864 24.5 28.25 24.5C27.2136 24.5 26.375 25.3386 26.375 26.375V28.25H24.5C23.4636 28.25 22.625 29.0886 22.625 30.125C22.625 31.1614 23.4636 32 24.5 32H26.375V43.25H24.5C23.4636 43.25 22.625 44.0886 22.625 45.125C22.625 46.1614 23.4636 47 24.5 47H26.375V48.875C26.375 49.9114 27.2136 50.75 28.25 50.75C29.2864 50.75 30.125 49.9114 30.125 48.875V47H33.875V48.875C33.875 49.9114 34.7136 50.75 35.75 50.75C36.7864 50.75 37.625 49.9114 37.625 48.875V46.6546C39.803 45.8781 41.375 43.8162 41.375 41.375C41.375 39.9291 40.8115 38.6224 39.912 37.625C40.8115 36.6276 41.375 35.3209 41.375 33.875C41.375 31.4338 39.803 29.372 37.625 28.5954ZM35.75 43.25H30.125V39.5H35.75C36.7827 39.5 37.625 40.3405 37.625 41.375C37.625 42.4095 36.7827 43.25 35.75 43.25ZM35.75 35.75H30.125V32H35.75C36.7827 32 37.625 32.8405 37.625 33.875C37.625 34.9095 36.7827 35.75 35.75 35.75ZM62.125 9.5H24.2712L28.706 16.1639C29.0536 16.6863 29.6395 17 30.2669 17H64V11.375C64 10.3395 63.1605 9.5 62.125 9.5Z" fill="url(#paint2_linear_0_84)"/>
<defs>
<linearGradient id="paint0_linear_0_84" x1="32" y1="58.25" x2="32" y2="5.75" gradientUnits="userSpaceOnUse">
<stop stop-color="#A93AFF"/>
<stop offset="1" stop-color="#FF81FF"/>
</linearGradient>
<linearGradient id="paint1_linear_0_84" x1="32" y1="58.25" x2="32" y2="5.75" gradientUnits="userSpaceOnUse">
<stop stop-color="#31C3EF"/>
<stop offset="1" stop-color="#92E6FF"/>
</linearGradient>
<linearGradient id="paint2_linear_0_84" x1="32" y1="50.75" x2="32" y2="9.5" gradientUnits="userSpaceOnUse">
<stop stop-color="#BDF1FF"/>
<stop offset="1" stop-color="#FFF1FF"/>
</linearGradient>
</defs>
</svg>
