<svg width="64" height="64" viewBox="0 0 64 64" fill="none" xmlns="http://www.w3.org/2000/svg">
<g clip-path="url(#clip0_0_57)">
<path d="M63.2969 30.4944L44.8614 15.8221C37.4272 9.94815 26.5837 9.93902 19.1278 15.8313L0.703125 30.4944C0.26 30.8496 0 31.3879 0 31.9574C0 32.5269 0.26 33.0651 0.703125 33.4204L19.1386 48.0926C26.5905 53.9808 37.1473 54.1884 44.8722 48.0835L63.2967 33.4204C63.7399 33.0651 63.9999 32.5269 63.9999 31.9574C63.9999 31.3879 63.74 30.8496 63.2969 30.4944Z" fill="url(#paint0_linear_0_57)"/>
<path d="M63.2969 30.4944L44.8614 15.8221C37.4272 9.94815 26.5837 9.93902 19.1278 15.8313L0.703125 30.4944C0.26 30.8496 0 31.3879 0 31.9574C0 32.5269 0.26 33.0651 0.703125 33.4204L19.1386 48.0926C26.5905 53.9808 37.1473 54.1884 44.8722 48.0835L63.2967 33.4204C63.7399 33.0651 63.9999 32.5269 63.9999 31.9574C63.9999 31.3879 63.74 30.8496 63.2969 30.4944Z" fill="url(#paint1_linear_0_57)"/>
<path d="M32 18.8324C24.7636 18.8324 18.875 24.721 18.875 31.9574C18.875 39.1703 24.7425 45.0824 32 45.0824C39.2364 45.0824 45.125 39.1938 45.125 31.9574C45.125 24.7445 39.2575 18.8324 32 18.8324ZM22.625 31.9574C22.625 26.7883 26.8291 22.5824 32 22.5824C33.9075 22.5824 35.6795 23.1616 37.1609 24.1436L24.1869 37.1203C23.2045 35.6378 22.625 33.8654 22.625 31.9574ZM32 41.3324C30.0925 41.3324 28.3205 40.753 26.8391 39.7711L39.813 26.7945C40.7954 28.277 41.3749 30.0495 41.3749 31.9574C41.375 37.1264 37.1709 41.3324 32 41.3324Z" fill="url(#paint2_linear_0_57)"/>
</g>
<defs>
<linearGradient id="paint0_linear_0_57" x1="32" y1="52.5858" x2="32" y2="11.4143" gradientUnits="userSpaceOnUse">
<stop stop-color="#A93AFF"/>
<stop offset="1" stop-color="#FF81FF"/>
</linearGradient>
<linearGradient id="paint1_linear_0_57" x1="31.9999" y1="52.5857" x2="31.9999" y2="11.4144" gradientUnits="userSpaceOnUse">
<stop stop-color="#31C3EF"/>
<stop offset="1" stop-color="#92E6FF"/>
</linearGradient>
<linearGradient id="paint2_linear_0_57" x1="32" y1="45.0824" x2="32" y2="18.8324" gradientUnits="userSpaceOnUse">
<stop stop-color="#BDF1FF"/>
<stop offset="1" stop-color="#FFF1FF"/>
</linearGradient>
<clipPath id="clip0_0_57">
<rect width="64" height="64" fill="white"/>
</clipPath>
</defs>
</svg>
