<svg width="65" height="64" viewBox="0 0 65 64" fill="none" xmlns="http://www.w3.org/2000/svg">
<g clip-path="url(#clip0_0_77)">
<path d="M39.9583 26.375C34.7889 26.375 30.5833 22.1694 30.5833 17C30.5833 11.8306 34.7889 7.625 39.9583 7.625C45.1277 7.625 49.3333 11.8306 49.3333 17C49.3333 22.1694 45.1277 26.375 39.9583 26.375ZM63.1676 43.7415L52.0211 56.6396C49.7653 59.2498 46.4861 60.75 43.0362 60.75H11.8333V39.5H15.2524C17.6517 37.8592 20.4446 36.9969 23.3698 37C26.2513 37.003 29.0532 37.9007 31.4392 39.5H42.5417C45.1306 39.5 47.2292 41.5986 47.2292 44.1875C47.2292 45.6413 46.5673 46.9403 45.5286 47.8001C45.6819 47.6792 45.8296 47.55 45.9691 47.4105L56.1568 37.2228C58.0273 35.3523 61.0601 35.3523 62.9306 37.2228C64.7054 38.9979 64.8089 41.8423 63.1676 43.7415Z" fill="url(#paint0_linear_0_77)"/>
<path d="M39.9583 0.125C30.6534 0.125 23.0833 7.69512 23.0833 17C23.0833 26.3049 30.6534 33.875 39.9583 33.875C49.2632 33.875 56.8333 26.3049 56.8333 17C56.8333 7.69512 49.2632 0.125 39.9583 0.125ZM39.9583 26.375C34.7889 26.375 30.5833 22.1694 30.5833 17C30.5833 11.8306 34.7889 7.625 39.9583 7.625C45.1277 7.625 49.3333 11.8306 49.3333 17C49.3333 22.1694 45.1277 26.375 39.9583 26.375ZM29.8333 48.875H42.4537C42.8607 48.875 43.2572 48.8236 43.6369 48.7276C44.5123 48.5105 45.3206 48.0589 45.9691 47.4105L50.8206 42.559C50.9322 43.1274 50.9874 43.7158 50.9782 44.3185C50.9074 48.9482 47.0437 52.625 42.4136 52.625H29.8333C28.7978 52.625 27.9583 51.7855 27.9583 50.75C27.9583 49.7145 28.7978 48.875 29.8333 48.875ZM11.8333 62V38.25C11.8333 37.2145 10.9938 36.375 9.95831 36.375H2.20831C1.17281 36.375 0.333313 37.2145 0.333313 38.25V62C0.333313 63.0355 1.17281 63.875 2.20831 63.875H9.95831C10.9938 63.875 11.8333 63.0355 11.8333 62Z" fill="url(#paint1_linear_0_77)"/>
<path d="M39.9583 0.125C30.6534 0.125 23.0833 7.69512 23.0833 17C23.0833 26.3049 30.6534 33.875 39.9583 33.875C49.2632 33.875 56.8333 26.3049 56.8333 17C56.8333 7.69512 49.2632 0.125 39.9583 0.125ZM39.9583 26.375C34.7889 26.375 30.5833 22.1694 30.5833 17C30.5833 11.8306 34.7889 7.625 39.9583 7.625C45.1277 7.625 49.3333 11.8306 49.3333 17C49.3333 22.1694 45.1277 26.375 39.9583 26.375ZM29.8333 48.875H42.4537C42.8607 48.875 43.2572 48.8236 43.6369 48.7276C44.5123 48.5105 45.3206 48.0589 45.9691 47.4105L50.8206 42.559C50.9322 43.1274 50.9874 43.7158 50.9782 44.3185C50.9074 48.9482 47.0437 52.625 42.4136 52.625H29.8333C28.7978 52.625 27.9583 51.7855 27.9583 50.75C27.9583 49.7145 28.7978 48.875 29.8333 48.875ZM11.8333 62V38.25C11.8333 37.2145 10.9938 36.375 9.95831 36.375H2.20831C1.17281 36.375 0.333313 37.2145 0.333313 38.25V62C0.333313 63.0355 1.17281 63.875 2.20831 63.875H9.95831C10.9938 63.875 11.8333 63.0355 11.8333 62Z" fill="url(#paint2_linear_0_77)"/>
</g>
<defs>
<linearGradient id="paint0_linear_0_77" x1="38.0833" y1="60.75" x2="38.0833" y2="7.625" gradientUnits="userSpaceOnUse">
<stop stop-color="#BDF1FF"/>
<stop offset="1" stop-color="#FFF1FF"/>
</linearGradient>
<linearGradient id="paint1_linear_0_77" x1="28.5833" y1="63.875" x2="28.5833" y2="0.125" gradientUnits="userSpaceOnUse">
<stop stop-color="#A93AFF"/>
<stop offset="1" stop-color="#FF81FF"/>
</linearGradient>
<linearGradient id="paint2_linear_0_77" x1="28.5833" y1="63.875" x2="28.5833" y2="0.125" gradientUnits="userSpaceOnUse">
<stop stop-color="#31C3EF"/>
<stop offset="1" stop-color="#92E6FF"/>
</linearGradient>
<clipPath id="clip0_0_77">
<rect width="64" height="64" fill="white" transform="translate(0.333313)"/>
</clipPath>
</defs>
</svg>
