<svg width="95" height="33" viewBox="0 0 95 33" fill="none" xmlns="http://www.w3.org/2000/svg">
<path d="M25.8255 21.6391C25.5197 23.4071 24.6291 24.9093 23.1535 26.1456C21.6912 27.3819 20.0827 28 18.328 28H6.08474C4.52941 28 3.26653 27.5015 2.29611 26.5045C1.3124 25.4809 0.820539 24.2247 0.820539 22.7358C0.820539 22.5497 0.827185 22.3702 0.840479 22.1974C0.853772 22.0113 0.873712 21.8252 0.900299 21.6391L2.67497 11.2104H10.8504L9.35493 19.8245H17.9691L19.4646 11.2104H27.64L25.8255 21.6391ZM11.2492 8.93721H3.09372L4.52941 0.781686H12.7049L11.2492 8.93721ZM28.0389 8.93721H19.8833L21.319 0.781686H29.4945L28.0389 8.93721Z" fill="white"/>
<path d="M24.8085 28H16.6928L19.5842 11.2104H27.7596L24.8085 28ZM41.5981 28H33.4226L36.3738 11.2104H44.5492L41.5981 28ZM45.3668 6.04589C45.3668 6.232 45.3535 6.41146 45.3269 6.58427C45.3136 6.75709 45.2937 6.93655 45.2671 7.12266L44.948 8.93721H20.0029L21.4386 0.781686H40.0428C41.5981 0.781686 42.8743 1.28019 43.8713 2.2772C44.8683 3.27421 45.3668 4.53044 45.3668 6.04589Z" fill="white"/>
<path d="M71.1695 17.5713H56.653L54.7986 28H46.6829L49.5743 11.2104H72.2662L71.1695 17.5713ZM72.665 8.93721H49.993L51.4287 0.781686H74.1206L72.665 8.93721Z" fill="white"/>
<path d="M80.9003 28H72.7248L75.676 11.2104H83.8514L80.9003 28ZM92.6451 8.93721H67.6999L69.1356 0.781686H94.1007L92.6451 8.93721Z" fill="white"/>
</svg>
