<svg width="64" height="64" viewBox="0 0 64 64" fill="none" xmlns="http://www.w3.org/2000/svg">
<g clip-path="url(#clip0_0_30)">
<path d="M37.6255 20.7779V20.7486C37.6255 17.6466 35.102 15.1232 32 15.1232C28.898 15.1232 26.3746 17.6466 26.3746 20.7486V20.7761C24.0599 22.5213 22.6243 25.2754 22.6243 28.2492C22.6243 31.0327 23.5233 32.9682 24.7448 34.3233C24.0471 35.1309 23.5894 36.1178 23.43 37.1909C23.0494 39.7286 24.3953 41.7806 26.3746 43.221V43.2503C26.3746 46.3523 28.898 48.8757 32 48.8757C35.102 48.8757 37.6255 46.3523 37.6255 43.2503V43.2228C39.9401 41.4776 41.3757 38.7235 41.3757 35.7497C41.3757 32.9662 40.4767 31.0307 39.2552 29.6756C41.2681 27.3458 41.361 23.4963 37.6255 20.7779ZM63.4508 30.6714L59.7028 26.9234C58.9704 26.1909 57.7836 26.1909 57.0512 26.9234C56.3188 27.6558 56.3188 28.8425 57.0512 29.5749L57.6006 30.1244H50.7515C49.715 30.1244 48.8763 30.963 48.8763 31.9995C48.8763 33.036 49.715 33.8747 50.7515 33.8747H57.6006L57.0512 34.4241C56.3188 35.1565 56.3188 36.3432 57.0512 37.0757C57.7836 37.8081 58.9702 37.8081 59.7028 37.0757L63.4508 33.3276C64.1766 32.6037 64.188 31.4066 63.4508 30.6714ZM6.39939 33.8747H13.2485C14.285 33.8747 15.1237 33.036 15.1237 31.9995C15.1237 30.963 14.285 30.1244 13.2485 30.1244H6.39939L6.9488 29.5749C7.68123 28.8425 7.68123 27.6558 6.9488 26.9234C6.21637 26.1909 5.02965 26.1909 4.29722 26.9234L0.549179 30.6714C-0.176628 31.3953 -0.188004 32.5923 0.549179 33.3276L4.29722 37.0757C5.02965 37.8081 6.21625 37.8081 6.9488 37.0757C7.68123 36.3432 7.68123 35.1565 6.9488 34.4241L6.39939 33.8747ZM53.2144 46.0356C52.178 46.0356 51.3393 46.8743 51.3393 47.9108V48.6872L46.5855 43.9334C45.8531 43.201 44.6664 43.201 43.9339 43.9334C43.2015 44.6659 43.2015 45.8526 43.9339 46.585L48.6877 51.3388H47.9113C46.8748 51.3388 46.0361 52.1775 46.0361 53.2139C46.0361 54.2504 46.8748 55.0891 47.9113 55.0891H53.2144C54.2402 55.0891 55.0896 54.2481 55.0896 53.2139V47.9108C55.0896 46.8743 54.2509 46.0356 53.2144 46.0356ZM15.3123 12.6602H16.0888C17.1252 12.6602 17.9639 11.8216 17.9639 10.7851C17.9639 9.74864 17.1252 8.90995 16.0888 8.90995H10.7856C9.75152 8.90995 8.91046 9.75877 8.91046 10.7851V16.0883C8.91046 17.1247 9.74915 17.9634 10.7856 17.9634C11.8221 17.9634 12.6607 17.1247 12.6607 16.0883V15.3118L17.4145 20.0656C18.1469 20.798 19.3335 20.798 20.0661 20.0656C20.7985 19.3331 20.7985 18.1464 20.0661 17.414L15.3123 12.6602ZM17.4145 43.9334L12.6607 48.6872V47.9108C12.6607 46.8743 11.8221 46.0356 10.7856 46.0356C9.74915 46.0356 8.91046 46.8743 8.91046 47.9108V53.2139C8.91046 54.2479 9.75927 55.0891 10.7856 55.0891H16.0888C17.1252 55.0891 17.9639 54.2504 17.9639 53.2139C17.9639 52.1775 17.1252 51.3388 16.0888 51.3388H15.3123L20.0661 46.585C20.7985 45.8526 20.7985 44.6659 20.0661 43.9334C19.3336 43.201 18.1471 43.2009 17.4145 43.9334ZM46.5855 20.0656L51.3393 15.3118V16.0883C51.3393 17.1247 52.178 17.9634 53.2144 17.9634C54.2509 17.9634 55.0896 17.1247 55.0896 16.0883V10.7851C55.0896 9.75927 54.2486 8.90995 53.2144 8.90995H47.9113C46.8748 8.90995 46.0361 9.74864 46.0361 10.7851C46.0361 11.8216 46.8748 12.6602 47.9113 12.6602H48.6877L43.9339 17.414C43.2015 18.1464 43.2015 19.3331 43.9339 20.0656C44.6664 20.798 45.853 20.798 46.5855 20.0656ZM30.1249 50.751V57.6001L29.5754 57.0507C28.843 56.3183 27.6563 56.3183 26.9239 57.0507C26.1914 57.7831 26.1914 58.9699 26.9239 59.7023L30.6719 63.4503C31.3898 64.1701 32.5839 64.1964 33.3281 63.4503L37.0762 59.7023C37.8086 58.9699 37.8086 57.7831 37.0762 57.0507C36.3437 56.3183 35.157 56.3183 34.4246 57.0507L33.8752 57.6001V50.751C33.8752 49.7145 33.0365 48.8758 32 48.8758C30.9636 48.8758 30.1249 49.7145 30.1249 50.751ZM33.8752 13.248V6.39888L34.4246 6.9483C35.157 7.68073 36.3436 7.68073 37.0762 6.9483C37.8086 6.21587 37.8086 5.02915 37.0762 4.29672L33.3281 0.548675C32.6043 -0.177132 31.4072 -0.188507 30.6719 0.548675L26.924 4.29659C26.1916 5.02902 26.1916 6.21574 26.924 6.94817C27.6564 7.68061 28.8431 7.68061 29.5756 6.94817L30.125 6.39876V13.2479C30.125 14.2844 30.9637 15.1231 32.0001 15.1231C33.0365 15.1232 33.8752 14.2845 33.8752 13.248Z" fill="url(#paint0_linear_0_30)"/>
<path d="M32 11.3729C20.6365 11.3729 11.3734 20.636 11.3734 31.9995C11.3734 43.3628 20.6365 52.6261 32 52.6261C43.3635 52.6261 52.6266 43.3628 52.6266 31.9995C52.6266 20.636 43.3635 11.3729 32 11.3729ZM33.8752 41.0376V43.2504C33.8752 44.3003 33.0502 45.1255 32 45.1255C30.9498 45.1255 30.1249 44.3003 30.1249 43.2504V41.0001C29.1122 40.6251 28.1746 40.0251 27.4997 39.1249C26.8622 38.3 27.0496 37.1374 27.8748 36.4999C28.6998 35.8997 29.8999 36.0496 30.4999 36.8748C30.8751 37.3623 31.4002 37.6248 32.0001 37.6248C33.0504 37.6248 33.8753 36.7996 33.8753 35.7497C33.8753 34.5121 33.6503 34.3246 31.5501 33.837C29.6375 33.3495 26.3747 32.5618 26.3747 28.2491C26.3747 25.8113 27.9497 23.7487 30.125 22.961V20.7485C30.125 19.6983 30.9499 18.8734 32.0001 18.8734C33.0504 18.8734 33.8753 19.6983 33.8753 20.7485V22.9986C34.888 23.3737 35.8256 23.9736 36.5005 24.8737C37.1379 25.6989 36.9505 26.8615 36.1253 27.4989C35.3004 28.1365 34.1378 27.9489 33.5003 27.124C32.5252 25.8113 30.1249 26.6365 30.1249 28.2491C30.1249 29.4866 30.3499 29.6742 32.4501 30.1617C34.3627 30.6493 37.6255 31.4367 37.6255 35.7497C37.6255 38.1874 36.0505 40.2501 33.8752 41.0376Z" fill="url(#paint1_linear_0_30)"/>
</g>
<defs>
<linearGradient id="paint0_linear_0_30" x1="32" y1="64.0001" x2="32" y2="4.57764e-05" gradientUnits="userSpaceOnUse">
<stop stop-color="#BDF1FF"/>
<stop offset="1" stop-color="#FFF1FF"/>
</linearGradient>
<linearGradient id="paint1_linear_0_30" x1="32" y1="52.6261" x2="32" y2="11.3729" gradientUnits="userSpaceOnUse">
<stop stop-color="#31C3EF"/>
<stop offset="1" stop-color="#92E6FF"/>
</linearGradient>
<clipPath id="clip0_0_30">
<rect width="64" height="64" fill="white"/>
</clipPath>
</defs>
</svg>
