<svg width="64" height="64" viewBox="0 0 64 64" fill="none" xmlns="http://www.w3.org/2000/svg">
<g clip-path="url(#clip0_0_19)">
<path d="M39.375 5.625H5.625V39.375H39.375V5.625ZM62.125 30H46.875C45.8386 30 45 30.8386 45 31.875V41.25H28.125C27.0886 41.25 26.25 42.0886 26.25 43.125V54.375C26.25 55.4114 27.0886 56.25 28.125 56.25H46.0986L53.0493 63.4502C53.5948 63.9958 54.411 64.1434 55.0928 63.8568C55.7923 63.5675 56.25 62.8826 56.25 62.1246V56.25H62.125C63.1614 56.25 64 55.4114 64 54.375V31.875C64 30.8386 63.1614 30 62.125 30Z" fill="url(#paint0_linear_0_19)"/>
<path d="M46.875 0H1.875C0.824875 0 0 0.824875 0 1.875V43.125C0 44.1749 0.824875 45 1.875 45H7.5V50.625C7.5 51.375 7.95 52.05 8.6625 52.3499C9.20713 52.6225 10.137 52.5495 10.6874 51.9374L17.6626 45H46.875C47.9251 45 48.75 44.1749 48.75 43.125V1.875C48.75 0.824875 47.9251 0 46.875 0ZM37.5 28.125C37.5 31.2372 34.9876 33.75 31.875 33.75C28.7624 33.75 26.25 31.2372 26.25 28.125C26.25 25.0125 28.7624 22.5 31.875 22.5C32.55 22.5 33.1501 22.6499 33.75 22.8374V19.1625L18.75 22.1625V31.875C18.75 34.9873 16.2376 37.5 13.125 37.5C10.0124 37.5 7.5 34.9873 7.5 31.875C7.5 28.7625 10.0124 26.25 13.125 26.25C13.8 26.25 14.4001 26.3999 15 26.5874V13.125C15 12.225 15.6374 11.475 16.5001 11.2875L35.2501 7.5375C35.8125 7.42487 36.3751 7.57475 36.825 7.9125C37.2375 8.28737 37.5 8.81238 37.5 9.375V28.125Z" fill="url(#paint1_linear_0_19)"/>
</g>
<defs>
<linearGradient id="paint0_linear_0_19" x1="34.8125" y1="64" x2="34.8125" y2="5.625" gradientUnits="userSpaceOnUse">
<stop stop-color="#BDF1FF"/>
<stop offset="1" stop-color="#F1FBFF"/>
</linearGradient>
<linearGradient id="paint1_linear_0_19" x1="24.375" y1="52.5009" x2="24.375" y2="0" gradientUnits="userSpaceOnUse">
<stop stop-color="#31C3EF"/>
<stop offset="1" stop-color="#92E6FF"/>
</linearGradient>
<clipPath id="clip0_0_19">
<rect width="64" height="64" fill="white"/>
</clipPath>
</defs>
</svg>
